<?xml version="1.0" encoding="utf-8"?>
<!-- Generator: Adobe Illustrator 23.0.0, SVG Export Plug-In . SVG Version: 6.00 Build 0)  -->
<svg version="1.1" id="Calque_1" xmlns="http://www.w3.org/2000/svg" xmlns:xlink="http://www.w3.org/1999/xlink" x="0px" y="0px"
	 viewBox="0 0 46 20" style="enable-background:new 0 0 46 20;" xml:space="preserve">
<style type="text/css">
	.st0{fill:#1A1919;}
	.st1{fill:#FECC09;}
</style>
<g id="iconNet_2_">
	<g>
		<g>
			<path class="st0" d="M40.7,1.1c0.2,0.1,0.3,0.1,0.5,0.2c0.3,0.3,0.5,0.6,0.4,1c0,0.7,0,1.4,0,2.1c0,0.1,0,0.1,0,0.2h0.2
				c0.7,0,1.3,0,2,0c0.2,0,0.5,0.1,0.7,0.2C44.8,5,45,5.3,45,5.6c0,0.6,0,1.3,0,1.9c0,0.3-0.2,0.6-0.5,0.8c-0.2,0.1-0.5,0.1-0.7,0.2
				c-0.7,0-1.3,0-2,0h-0.2v0.2c0,1.7,0,3.4,0,5.1c0,0.2,0,0.4,0.1,0.7c0.1,0.6,0.7,1.1,1.3,1.1c0.3,0,0.5,0,0.8,0
				c0.6,0,1.1,0.5,1.1,1.1l0,0c0,0.3,0,0.7,0,1c0,0.7-0.4,1.2-1.1,1.4c-1.4,0.3-2.8,0.2-4.2-0.3s-2.2-1.5-2.4-3
				c-0.1-0.6-0.1-1.1-0.1-1.7c0-1.8,0-3.6,0-5.3c0-0.1,0-0.2,0-0.3c-0.2,0-0.3,0-0.5,0c-0.3,0-0.7,0-1,0c-0.5,0-0.9-0.5-0.9-1
				c0-0.4,0-0.8,0-1.2c0-0.4,0.2-0.7,0.6-0.9c0.5-0.2,1-0.3,1.4-0.5h0.1c0.2,0,0.3-0.1,0.3-0.3c0-0.6,0-1.2,0-1.8
				c0-0.4,0.3-0.8,0.7-0.9c0.5-0.2,1-0.3,1.5-0.5c0.3-0.1,0.7-0.2,1-0.3L40.7,1.1z"/>
			<path class="st0" d="M10.6,5.7c0.2-0.1,0.5-0.3,0.7-0.4c1.6-0.8,3.3-1.1,5.1-1c0.9,0,1.7,0.3,2.4,0.8c0.8,0.6,1.3,1.5,1.4,2.5
				c0.1,0.5,0.1,0.9,0.1,1.4c0,2.8,0,5.5,0,8.3c0,0.1,0,0.2,0,0.4c0,0.6-0.5,1-1.1,1l0,0c-0.8,0-1.5,0-2.3,0c-0.6,0-1.1-0.4-1.1-1
				c0,0,0,0,0-0.1s0-0.3,0-0.4c0-2.5,0-5,0-7.4c0-0.3,0-0.6-0.1-0.9c-0.1-0.6-0.6-1-1.1-1c-1-0.1-1.9,0.2-2.7,0.7
				c-0.1,0.1-0.1,0.1-0.1,0.2c0,2,0,4.1,0,6.1c0,0.8,0,1.6,0,2.4c0,0.1,0,0.3,0,0.4c0,0.6-0.5,1-1.1,1l0,0c-0.8,0-1.5,0-2.3,0
				c-0.6,0-1.1-0.4-1.1-1v-0.1c0-0.1,0-0.2,0-0.3c0-3.7,0-7.5,0-11.2c0-0.2,0-0.3,0-0.5c0-0.5,0.5-0.9,1-0.9c0.3,0,0.7,0,1,0
				c0.4,0,0.7,0.2,0.9,0.5C10.4,5.4,10.5,5.5,10.6,5.7z"/>
			<path class="st0" d="M26.1,13.2c-0.2,0.9,0.2,1.8,1,2.1c0.4,0.1,0.9,0.2,1.3,0.3c1.3,0.1,2.5,0,3.7-0.4c0.3-0.1,0.6-0.1,0.8,0
				c0.5,0.1,0.9,0.5,1,1c0,0.4,0,0.7,0,1.1c-0.1,0.6-0.5,1-1,1.2c-1.9,0.6-4,0.8-6,0.6C25.8,19,24.8,18.6,24,18c-1-0.7-1.7-1.8-2-3
				c-0.3-1.3-0.5-2.7-0.4-4c0-1.1,0.2-2.2,0.6-3.2C22.8,6.2,24.3,5,26,4.6c1.5-0.3,3-0.3,4.5,0.1c1.6,0.4,2.8,1.6,3.3,3.2
				c0.4,1.2,0.5,2.5,0.5,3.8c0,0.1,0,0.3,0,0.4c0.1,0.6-0.4,1.1-1,1.2c-0.1,0-0.1,0-0.2,0c-0.1,0-0.2,0-0.3,0h-6.7V13.2z M26.1,10.4
				C26.1,10.5,26.1,10.5,26.1,10.4H30c0.1,0,0.1-0.1,0.1-0.1c0-0.3,0.1-0.7,0-1c0-0.9-0.5-1.4-1.3-1.6c-0.3-0.1-0.5-0.1-0.8-0.1
				c-0.7,0-1.3,0.4-1.6,1C26.2,9.2,26.1,9.8,26.1,10.4L26.1,10.4z"/>
			<g>
				<circle class="st1" cx="3.2" cy="16" r="3"/>
			</g>
		</g>
	</g>
</g>
</svg>
