<?xml version="1.0" encoding="utf-8"?>
<!-- Generator: Adobe Illustrator 23.0.0, SVG Export Plug-In . SVG Version: 6.00 Build 0)  -->
<svg version="1.1" id="Calque_1" xmlns="http://www.w3.org/2000/svg" xmlns:xlink="http://www.w3.org/1999/xlink" x="0px" y="0px"
	 viewBox="0 0 47 21" style="enable-background:new 0 0 47 21;" xml:space="preserve">
<style type="text/css">
	.st0{fill:#231F20;}
	.st1{fill:#D2202F;}
</style>
<g>
	<g>
		<path class="st0" d="M18.6,20.1c3,0,5.8-1.3,7.6-3.6l-3-2.5c-1.2,1.4-2.9,2.2-4.6,2.2c-3.3,0-6-2.7-6-6s2.7-6,6-6
			c1.5,0,2.9,0.5,4,1.5l2.6-2.9c-1.8-1.6-4.1-2.4-6.5-2.4c-5.4,0-9.9,4.5-9.9,9.9C8.7,15.6,13.1,20.1,18.6,20.1z"/>
		<path class="st0" d="M36.5,0.2c-5.5,0-9.9,4.5-9.9,9.9s4.5,9.9,9.9,9.9c4.3,0,5.5-2.9,5.5-3v2.6h4v-9.5c0-0.1,0-0.1,0-0.1V4.7
			C43.7,2.9,42.1,2,42.1,2C40.5,0.9,38.6,0.2,36.5,0.2z M36.6,16.2c-3.2,0-6-2.7-6-6s2.7-6,6-6c3.2,0,5.8,2,5.8,6
			C42.4,14.1,39.8,16.2,36.6,16.2z"/>
		<g>
			<g>
				<path class="st1" d="M4.6,15.4c-1-0.9-2.4-1.2-3.7-0.7c-0.3,0.5-0.5,1.1-0.5,1.7c0,0.1,0,0.2,0,0.3C1.9,17.3,3.6,16.8,4.6,15.4z
					 M5.3,13.3c0-0.1,0-0.2,0-0.2C5,13,4.8,13,4.6,12.9c0.2,0.5,0.4,1,0.5,1.6C5.2,14.1,5.3,13.7,5.3,13.3z M2.8,19.9
					C3.5,20.2,4.3,20.2,5,20c0.9-1.2,0.9-2.8,0.1-4C4.9,17.6,4.1,19,2.8,19.9z M4.7,16.2c-0.8,0.8-1.9,1.3-3,1.3
					c-0.4,0-0.8-0.1-1.1-0.2C0.7,18,1,18.6,1.5,19.1c0.3,0.3,0.6,0.5,1,0.7C3.6,18.9,4.4,17.6,4.7,16.2L4.7,16.2z M6.6,13.9
					c-0.2-0.2-0.5-0.4-0.8-0.6c0,0.6-0.1,1.2-0.4,1.7c1,1.2,1.4,2.8,0.8,4.2c0.1-0.1,0.2-0.2,0.3-0.3C8,17.7,8,15.4,6.6,13.9
					C6.6,14,6.6,14,6.6,13.9L6.6,13.9z M4.7,14.4c-0.1-0.5-0.3-1-0.5-1.5H4.1c-0.8,0-1.6,0.3-2.2,0.8c0.1,0,0.2,0,0.4,0
					C3.1,13.6,3.9,13.9,4.7,14.4L4.7,14.4z"/>
			</g>
		</g>
	</g>
</g>
</svg>
